# xmcd
#
# Track frame offsets:
#	150
#	14898
#	25828
#	40639
#	51913
#	66702
#	81633
#	96541
#	113386
#	129364
#
# Disc length: 1903 seconds
#
# Revision: 0
# Processed by: cddbd v1.5.2PL0 Copyright (c) Steve Scherf et al.
# Submitted via: EasyCDDAExtractor 16.0.6.1
#
DISCID=8c076d0a
DTITLE=Συλλογικός δίσκος - Λαϊκό τραγούδι 1954-1967, 1959-3
DYEAR=2008
DGENRE=Λαϊκή
TTITLE0=Καζαντζίδης Στέλιος - Απόκληρος της κοινωνίαςς [Στέλιος Καζαντζίδης-Κώ
TTITLE0=στας Βίρβος]
TTITLE1=Γαβαλάς Πάνος - Τέτοια φωτιά δεν σβήνει [Πάνος Γαβαλάς]
TTITLE2=Γιουλάκης Νίκος - Αλή Μπαμπά [Γιώργος Μητσάκης]
TTITLE3=Γκρέϋ Καίτη - Δεν ήταν η αγάπη μου για σένα [Βασίλης Καραπατάκης]
TTITLE4=Διονυσίου Στράτος-Θύμη Καίτη - Θεσσαλονίκη ξακουσμένη [Βασίλης Τσιτσάν
TTITLE4=ης]
TTITLE5=Καζαντζίδης Στέλιος - Κελί μου κατασκότεινο [Στέλιος Καζαντζίδης]
TTITLE6=Μπιθικώτσης Γρηγόρης - Στους απάνω μαχαλάδες [Θεόδωρος Δερβενιώτης-Κώσ
TTITLE6=τας Βίρβος]
TTITLE7=Λίντα Μαίρη-Χιώτης Μανώλης - Δεν θέλω πια να ξαναρθείς [Μανώλης Χιώτης
TTITLE7=]
TTITLE8=Γαβαλάς Πάνος-Μπαλαγούρας Ανδρέας - Σαν θα πεθάνω [Πάνος Γαβαλάς]
TTITLE9=Γκρέϋ Καίτη - Με γέρασες, με γέρασες [Μπάμπης Μπακάλης]
EXTD=
EXTT0=
EXTT1=
EXTT2=
EXTT3=
EXTT4=
EXTT5=
EXTT6=
EXTT7=
EXTT8=
EXTT9=
PLAYORDER=
